<svg width="24" height="24" viewBox="0 0 0.45 0.45" fill="none" xmlns="http://www.w3.org/2000/svg"><path d="M.434.045.449.044A.015.015 0 0 0 .423.035l.011.01ZM.419.134a.015.015 0 1 0-.03 0h.03ZM.224.136H.209Zm0 .029h.015Zm-.21.21V.36a.015.015 0 0 0-.008.027L.015.375Zm.03-.33L.058.04A.015.015 0 0 0 .031.039l.013.007Zm.12.27.011.011A.015.015 0 0 0 .169.301L.164.315ZM.381.074.37.084.375.09.383.089.381.074ZM.419.046a.109.109 0 0 1-.004.048.079.079 0 0 1-.022.03l.021.022A.11.11 0 0 0 .443.104a.139.139 0 0 0 .005-.06l-.03.002Zm0 .11V.134h-.03v.022h.03ZM.209.137v.028h.03V.136h-.03Zm0 .029V.18h.03V.165h-.03ZM.316.03A.106.106 0 0 0 .21.136h.03A.076.076 0 0 1 .316.06V.03ZM.39.156A.235.235 0 0 1 .155.39v.03A.264.264 0 0 0 .419.156h-.03ZM.031.05c.016.044.077.13.194.13V.15A.18.18 0 0 1 .059.04L.031.05ZM.032.038C0 .101-.005.162.018.214.041.266.09.306.16.329L.17.301C.105.279.064.244.046.202.028.16.03.109.059.052L.032.039Zm.123.266a.213.213 0 0 1-.14.056v.03a.24.24 0 0 0 .16-.064L.154.305Zm.238-.24A.103.103 0 0 0 .316.03v.03c.022 0 .041.009.055.024l.022-.02ZM.384.089A.105.105 0 0 0 .446.055L.424.035A.075.075 0 0 1 .38.059l.004.03ZM.007.387C.056.42.107.42.155.42V.39C.106.39.064.39.023.363L.006.388Z" fill="white"/></svg>